<?xml version="1.0" standalone="no"?>
<!DOCTYPE svg PUBLIC "-//W3C//DTD SVG 20010904//EN"
 "http://www.w3.org/TR/2001/REC-SVG-20010904/DTD/svg10.dtd">
<svg version="1.0" xmlns="http://www.w3.org/2000/svg"
 width="512.000000pt" height="512.000000pt" viewBox="0 0 512.000000 512.000000"
 preserveAspectRatio="xMidYMid meet">

<g transform="translate(0.000000,512.000000) scale(0.100000,-0.100000)"
fill="#000000" stroke="none">
<path d="M1388 3255 c-190 -36 -358 -133 -464 -267 -85 -108 -91 -184 -19
-247 75 -65 158 -45 231 57 119 168 395 236 632 156 113 -38 178 -85 240 -176
61 -90 163 -100 231 -23 44 50 44 118 0 186 -85 133 -261 254 -434 300 -106
27 -309 34 -417 14z"/>
<path d="M3377 3255 c-205 -39 -387 -153 -493 -310 -28 -41 -34 -59 -34 -102
0 -44 5 -58 31 -88 71 -80 168 -67 239 33 22 31 56 70 75 85 228 181 635 142
789 -75 73 -102 156 -122 231 -57 42 37 59 90 45 139 -15 52 -96 154 -173 215
-82 66 -187 118 -293 146 -105 27 -309 34 -417 14z"/>
<path d="M923 2110 c-41 -24 -66 -74 -65 -125 1 -71 96 -294 193 -452 174
-284 429 -517 716 -653 386 -184 911 -219 1346 -89 l70 21 301 -299 c261 -260
310 -304 371 -336 114 -58 211 -81 345 -81 209 1 341 55 486 199 79 78 98 104
137 185 57 120 71 181 71 300 0 116 -14 180 -65 288 -43 90 -46 93 -437 496
-152 156 -193 204 -189 220 3 12 17 55 32 96 32 87 34 133 11 178 -43 83 -164
96 -228 25 -10 -11 -29 -55 -43 -99 -75 -233 -244 -487 -427 -645 -268 -231
-586 -340 -988 -340 -402 0 -720 109 -988 340 -184 158 -351 411 -427 645 -14
44 -33 88 -43 99 -44 49 -124 61 -179 27z"/>
</g>
</svg>
